<mxfile host="app.diagrams.net" modified="2024-03-30T04:25:39.887Z" agent="Mozilla/5.0 (Macintosh; Intel Mac OS X 10_15_7) AppleWebKit/605.1.15 (KHTML, like Gecko) Version/15.2 Safari/605.1.15" version="23.1.1" etag="SB2EAj6euHI4gK6cGoyz" type="github">
  <diagram name="Page-1" id="zIr3P-Jx9CT3vj_QEejb">
    <mxGraphModel>
      <root>
        <mxCell id="0" />
        <mxCell id="1" parent="0" />
      </root>
    </mxGraphModel>
  </diagram>
</mxfile>
